<svg width="182" height="47" viewBox="0 0 182 47" fill="none" xmlns="http://www.w3.org/2000/svg"><path d="M17.0518 16.4922L19.4661 24.6479H14.4971L16.9956 16.4922H17.0518Z" fill="white"></path><path fill-rule="evenodd" clip-rule="evenodd" d="M50.5329 0H0V46.4568H50.5329V0ZM18.6801 13.7306H15.5919L9.13496 32.2617H11.9423L13.7671 26.8675H20.1399L21.8805 32.2617H24.8563L18.6801 13.7306ZM30.7689 30.0421H27.0351V32.2617H37.2259V30.0421H33.4921V15.9502H37.2259V13.7306H27.0351V15.9502H30.7689V30.0421Z" fill="white"></path><path d="M66.2345 31.7244H63.3404V16.343H57.2764V13.9863H72.326V16.343H66.2345V31.7244Z" fill="white"></path><path d="M77.0816 18.2181C78.864 18.2181 80.2605 18.6489 81.2712 19.5105C82.3002 20.372 82.8148 21.5461 82.8148 23.0327V31.7244H80.6372L80.3341 30.0266H80.1962C79.8838 30.5334 79.3418 30.9895 78.57 31.395C77.7982 31.7835 76.907 31.9778 75.8963 31.9778C74.9041 31.9778 74.0312 31.8004 73.2778 31.4456C72.5244 31.0909 71.9364 30.601 71.5138 29.9759C71.1095 29.3509 70.9074 28.6498 70.9074 27.8727C70.9074 26.6733 71.3851 25.6934 72.3407 24.9332C73.3146 24.173 74.656 23.7929 76.3649 23.7929H80.1962V22.9821C80.1962 22.1712 79.9114 21.5377 79.3418 21.0816C78.7721 20.6085 78.0095 20.372 77.054 20.372C76.2822 20.372 75.6391 20.5241 75.1246 20.8282C74.6101 21.1322 74.2609 21.5377 74.0772 22.0445H71.3484C71.6792 20.8619 72.3407 19.9328 73.333 19.2571C74.3252 18.5644 75.5748 18.2181 77.0816 18.2181ZM76.1995 29.8492C77.4123 29.8492 78.377 29.5367 79.0937 28.9116C79.8287 28.2866 80.1962 27.4926 80.1962 26.5297V25.7948H76.42C75.4645 25.7948 74.7387 25.9806 74.2425 26.3523C73.7648 26.7071 73.5259 27.1885 73.5259 27.7967C73.5259 28.4217 73.7556 28.9201 74.215 29.2917C74.6927 29.6634 75.3543 29.8492 76.1995 29.8492Z" fill="white"></path><path d="M88.0311 31.7244H85.4126V13.9863H88.0311V31.7244Z" fill="white"></path><path d="M103.419 24.5785C103.419 25.0346 103.373 25.4738 103.281 25.8962H92.7516C92.8802 27.1632 93.2937 28.1345 93.9919 28.8103C94.7086 29.486 95.6641 29.8239 96.8585 29.8239C97.6487 29.8239 98.3102 29.6803 98.8431 29.3931C99.3943 29.1059 99.8629 28.6667 100.249 28.0754H103.033C102.573 29.2917 101.811 30.2462 100.745 30.9388C99.6975 31.6315 98.4021 31.9778 96.8585 31.9778C95.5171 31.9778 94.3319 31.7075 93.3028 31.1669C92.2922 30.6263 91.502 29.8408 90.9324 28.8103C90.3627 27.7798 90.0779 26.5381 90.0779 25.0853C90.0779 23.6325 90.3536 22.3908 90.9048 21.3603C91.4745 20.3298 92.2646 19.5527 93.2753 19.029C94.2859 18.4884 95.4528 18.2181 96.7758 18.2181C98.154 18.2181 99.3484 18.5222 100.359 19.1304C101.37 19.7385 102.132 20.5325 102.647 21.5123C103.161 22.4753 103.419 23.4973 103.419 24.5785ZM100.8 23.869C100.671 22.906 100.267 22.0867 99.5873 21.411C98.9074 20.7183 97.9702 20.372 96.7758 20.372C95.6365 20.372 94.7269 20.6846 94.047 21.3096C93.3671 21.9347 92.9445 22.7878 92.7791 23.869H100.8Z" fill="white"></path><path d="M105.33 31.7244V18.4715H107.48L107.811 20.1693H107.949C108.408 19.4936 108.987 19.0037 109.685 18.6996C110.402 18.3786 111.174 18.2181 112.001 18.2181C113.03 18.2181 113.949 18.4377 114.757 18.877C115.566 19.2993 116.2 19.9159 116.659 20.7268C117.137 21.5377 117.376 22.4837 117.376 23.5649V31.7244H114.757V23.7423C114.757 22.6949 114.454 21.884 113.847 21.3096C113.259 20.7183 112.469 20.4227 111.477 20.4227C110.466 20.4227 109.621 20.7437 108.941 21.3856C108.28 22.0276 107.949 22.8131 107.949 23.7423V31.7244H105.33Z" fill="white"></path><path d="M124.37 31.7244C123.194 31.7244 122.248 31.4034 121.531 30.7615C120.833 30.1195 120.484 29.2748 120.484 28.2275V20.7015H118.223V18.4715H120.484L120.842 14.9239H123.102V18.4715H126.74V20.7015H123.102V28.0501C123.102 28.4724 123.249 28.8187 123.543 29.089C123.837 29.3593 124.214 29.4945 124.673 29.4945H126.74V31.7244H124.37Z" fill="white"></path><path d="M147.433 21.6137V13.9863H150.327V31.7244H147.433V23.9703H137.979V31.7244H135.085V13.9863H137.979V21.6137H147.433Z" fill="white"></path><path d="M158.648 31.9778C157.619 31.9778 156.691 31.7666 155.864 31.3443C155.056 30.9051 154.422 30.28 153.963 29.4691C153.503 28.6582 153.273 27.7038 153.273 26.6057V18.4715H155.892V26.4537C155.892 27.501 156.186 28.3204 156.774 28.9116C157.38 29.486 158.18 29.7732 159.172 29.7732C160.183 29.7732 161.019 29.4522 161.68 28.8103C162.36 28.1683 162.7 27.3828 162.7 26.4537V18.4715H165.319V31.7244H163.141L162.838 30.0266H162.7C162.241 30.6854 161.653 31.1754 160.936 31.4963C160.219 31.8173 159.457 31.9778 158.648 31.9778Z" fill="white"></path><path d="M175.194 31.9778C174.202 31.9778 173.32 31.8004 172.548 31.4456C171.776 31.0909 171.152 30.6179 170.674 30.0266H170.536L170.205 31.7244H168.055V13.9863H170.674V20.0426H170.812C171.271 19.502 171.868 19.0628 172.603 18.7249C173.338 18.3871 174.202 18.2181 175.194 18.2181C176.407 18.2181 177.482 18.4884 178.419 19.029C179.356 19.5527 180.091 20.3298 180.624 21.3603C181.157 22.3908 181.424 23.6325 181.424 25.0853C181.424 26.5381 181.157 27.7882 180.624 28.8356C180.091 29.8661 179.356 30.6517 178.419 31.1922C177.482 31.7159 176.407 31.9778 175.194 31.9778ZM174.753 29.7732C175.966 29.7732 176.94 29.3678 177.675 28.5569C178.428 27.746 178.805 26.5888 178.805 25.0853C178.805 23.5818 178.428 22.433 177.675 21.639C176.94 20.8282 175.966 20.4227 174.753 20.4227C173.522 20.4227 172.53 20.8282 171.776 21.639C171.041 22.433 170.674 23.5818 170.674 25.0853C170.674 26.6057 171.041 27.7713 171.776 28.5822C172.53 29.3762 173.522 29.7732 174.753 29.7732Z" fill="white"></path></svg>