<?xml version="1.0" encoding="utf-8" ?>
<svg xmlns="http://www.w3.org/2000/svg" xmlns:xlink="http://www.w3.org/1999/xlink" width="400" height="127">
	<path fill="#3BA5FF" d="M232.933 23.6245L233.256 23.8022C233.308 23.9288 233.36 24.0767 233.361 24.2158C233.366 25.4984 226.748 43.7631 225.775 46.677C220.859 61.4035 216.295 76.2863 211.224 90.9543C211.047 91.4677 210.827 91.8811 210.435 92.2635C206.426 92.8406 201.682 92.3422 197.6 92.289C197.836 92.0404 198.087 91.7695 198.233 91.4569C199.149 89.5028 199.724 87.1653 200.42 85.1137L205.235 70.7244C206.845 65.8806 209.005 60.9754 210.245 56.0354C210.392 55.4508 210.379 54.9338 210.168 54.3691C210.131 54.5641 210.077 54.753 210.002 54.9369C209.383 56.4579 176.298 89.9601 173.442 92.5541C171.443 94.3704 168.904 96.5679 166.412 97.6253C166.268 97.9241 165.962 98.0474 165.684 98.2052L165.38 98.0366C165.321 96.6635 166.048 94.9795 166.476 93.6596C168.546 87.2774 171.012 80.9798 173.194 74.6306C174.955 69.5034 185.88 35.894 187.642 33.655C189.49 32.5682 196.191 33.3274 198.663 33.259C198.906 33.8873 198.77 34.4237 198.612 35.0508C197.687 38.7021 196.143 42.3479 194.876 45.9045L189.362 61.869C188.709 63.7572 186.929 67.2952 187.117 69.166C189.087 67.7776 194.16 62.1108 196.2 60.0825L222.024 34.3898C225.278 31.1554 229.366 26.312 232.933 23.6245Z"/>
	<path fill="#3BA5FF" d="M347.034 23.8746L347.623 24.024C347.65 24.1436 347.673 24.2665 347.677 24.3896C347.714 25.6902 340.489 45.6976 339.318 49.1971C334.699 63.0058 330.408 76.9479 325.58 90.6852C325.366 91.2943 325.163 91.7435 324.709 92.2125C320.56 92.3909 316.369 92.2642 312.215 92.2529C312.334 92.1394 312.441 92.0153 312.519 91.8689C313.546 89.9339 315.058 84.0928 315.905 81.5857L321.472 65.1847C322.42 62.4013 323.556 59.5638 324.318 56.7285C324.476 56.1422 324.381 55.6186 324.216 55.0453C324.176 55.2104 324.128 55.3688 324.064 55.5265C323.646 56.5539 290.417 90.3363 286.554 93.7546C284.888 95.2288 282.713 96.7435 280.675 97.6255C280.529 97.9167 280.275 98.0084 280.003 98.1768L279.6 97.9903C279.345 96.6187 296.025 50.0112 298.029 44.1352C298.669 42.2594 301.6 34.8219 301.385 33.2902C305.31 33.0408 309.275 33.4207 313.211 33.1873C313.261 33.3301 313.305 33.4795 313.318 33.631C313.389 34.4593 303.304 63.7969 301.957 67.0595C301.669 67.7564 301.258 68.3634 300.782 68.9437C301.628 68.5734 302.236 68.095 302.906 67.4762C314.049 57.179 324.569 46.1076 335.316 35.3957L343.444 27.4152C344.599 26.2926 346.108 25.1752 347.034 23.8746Z"/>
	<path fill="#3BA5FF" d="M289.782 23.8743L290.296 23.9823L290.436 24.3558C289.976 26.9149 288.79 29.6006 287.946 32.0701L282.935 46.8223C278.024 61.4772 273.553 76.3461 268.363 90.8996C268.176 91.4253 267.966 91.8145 267.577 92.2162C264.544 92.784 258.199 92.2946 254.879 92.2659C255.092 92.0333 255.3 91.7661 255.441 91.483C256.16 90.0427 256.554 88.1484 257.049 86.6084L260.239 76.9828Q262.442 70.3435 264.734 63.7342C265.642 61.141 266.739 58.5028 267.473 55.8617C267.623 55.3237 267.556 54.8593 267.379 54.3367C267.346 54.4962 267.301 54.649 267.244 54.8018C266.523 56.7391 233.684 89.7964 229.79 93.2918C228.044 94.8591 226.107 96.4011 223.958 97.3773C223.915 97.4741 223.887 97.5484 223.807 97.6214C223.386 98.004 223.018 98.123 222.471 98.1185C222.414 97.9939 222.369 97.8732 222.349 97.7366C222.279 97.2718 241.562 41.1731 243.444 36.1842C243.79 35.2671 244.153 34.3999 244.751 33.6121C246.218 32.6075 253.782 33.2759 256.014 33.2414C256.056 33.3496 256.087 33.4227 256.086 33.5409C256.07 34.7698 245.904 64.3878 244.531 67.546C244.237 68.2231 243.77 68.7472 243.251 69.2617C243.966 68.913 244.647 68.5631 245.243 68.0297C248.465 65.1483 251.467 61.8673 254.542 58.8144L272.943 40.5428L284.322 29.3139C286.122 27.5445 288.184 25.8206 289.782 23.8743Z"/>
	<path fill="#3BA5FF" d="M158.659 113.985C161.822 113.045 185.704 113.601 190.338 113.605L271.884 113.65L300.08 113.655C304.801 113.653 309.777 113.298 314.461 113.76C315.228 113.747 316.652 113.544 317.333 113.823C317.09 115.833 311.969 125.1 310.457 126.723L310.426 127L150.436 127L150.671 126.288C153.027 122.255 155.59 117.493 158.659 113.985Z"/>
	<path fill="#3BA5FF" d="M165.41 0L166.507 0L399.562 0C399.699 0.415832 399.869 0.843497 399.949 1.27329L399.941 1.50427C400.192 9.35405 400.007 17.2594 400.009 25.1144L400.011 68.3252L400.009 106.065C400.008 112.592 400.235 119.211 399.966 125.73C399.947 126.178 399.798 126.618 399.562 127L343.026 127L329.076 127L329.123 126.524C329.721 122.076 331.367 117.622 332.663 113.327Q335.936 102.371 339.41 91.4778L353.804 44.682C357.003 34.4066 360.529 24.173 363.488 13.8318C363.57 13.547 363.532 13.2519 363.476 12.9656C361.683 13.2175 359.691 13.034 357.876 13.0261L347.24 13.0055L309.56 12.9994L177.437 12.9851C177.448 13.0231 177.459 13.0608 177.469 13.099C177.624 13.707 177.416 14.3084 177.25 14.8914C173.566 27.8658 168.973 40.672 164.924 53.548C159.906 69.4998 155.308 85.6994 149.621 101.419C148.505 104.503 147.05 107.599 145.342 110.399C140.205 118.821 132.584 124.145 123.032 126.454L122.995 127L64.2562 127L64.2177 126.679C58.1984 124.349 52.3288 121.745 49.0261 115.849C43.6543 106.261 46.8291 92.2932 49.6529 82.2486C54.6679 81.8414 60.0082 82.2431 65.0538 82.2176C63.8755 89.1275 60.122 98.502 62.0312 105.414C62.7962 108.183 65.1678 110.793 67.623 112.16C68.6182 112.714 69.7688 113.246 70.9075 113.38C76.5559 114.045 84.9044 113.581 90.8238 113.589C99.0109 113.599 108.04 114.047 116.138 113.514C117.341 113.435 118.478 113.17 119.632 112.834C125.748 111.052 130.503 107.74 133.58 102.102C135.065 99.379 136.097 96.4734 137.084 93.5429C142.147 78.5145 146.344 63.1338 151.035 47.9812L159.37 20.7967C161.438 14.1597 163.706 7.52913 165.474 0.806228C165.545 0.535749 165.487 0.262821 165.41 0ZM399.941 1.50427C397.779 3.93289 397.508 11.2266 395.254 13.0079C389.22 12.9989 383.174 13.0649 377.142 12.9632C377.258 13.4381 377.231 13.815 377.114 14.2835C375.023 22.6589 372.1 30.9047 369.66 39.1895L350.601 102.32Q348.16 110.217 345.826 118.147C345.178 120.327 344.452 124.284 343.32 126.106C343.229 126.253 343.134 126.397 343.03 126.535L343.026 127L399.562 127C399.798 126.618 399.947 126.178 399.966 125.73C400.235 119.211 400.008 112.592 400.009 106.065L400.011 68.3252L400.009 25.1144C400.007 17.2594 400.192 9.35405 399.941 1.50427Z"/>
	<path fill="#86BAD6" d="M166.507 0L399.562 0C399.699 0.415832 399.869 0.843497 399.949 1.27329C399.706 0.98142 399.378 0.801332 398.998 0.764075C394.717 0.344759 390.064 0.676674 385.749 0.674313L358.803 0.672386L232.987 0.641227L191.244 0.664305C183.705 0.667006 176.074 0.891782 168.544 0.580033C167.778 0.548338 167.111 0.524658 166.507 0Z"/>
	<path fill="#3BA5FF" d="M92.0548 0L109.933 0L125.985 0L141.262 0L148.405 0L148.7 0C148.732 0.389907 148.66 0.765332 148.575 1.14411C148.081 3.34461 144.584 13.0054 143.053 13.9775C133.636 13.8293 124.206 13.911 114.787 13.8816C109.357 13.8646 103.593 13.475 98.1953 13.976C96.4573 14.1373 94.6076 14.5406 93.0402 15.316C85.8442 18.876 82.9218 31.266 80.5453 38.3147C74.8541 38.7515 68.8685 38.4235 63.1575 38.3529C63.243 37.5916 63.3539 36.8257 63.5248 36.0784C66.196 24.3991 72.7625 11.074 83.0395 4.36799C85.8679 2.52241 89.2667 1.74821 92.0548 0Z"/>
	<path fill="#86BAD6" d="M141.262 0L148.405 0C148.025 0.465123 147.943 0.589384 147.312 0.662193C145.484 0.873244 143.319 0.561854 141.47 0.479354L141.262 0Z"/>
	<path fill="#59A0C5" d="M125.985 0L141.262 0L141.47 0.479354C138.995 1.04236 129.314 0.530919 126.002 0.528645L125.985 0Z"/>
	<path fill="#3BA5FF" d="M0 0L42.659 0L43.2297 0L60.3695 0L60.1641 0.391707C58.7851 7.1761 42.4871 51.0615 43.1355 53.0789C59.0565 53.4074 75.0414 52.7134 90.9467 53.3C91.4891 48.5561 94.9296 39.1445 96.5369 34.2394C101.1 34.2447 105.694 34.6 110.246 34.4921C108.897 40.4892 106.78 47.1028 104.836 52.9551C109.725 53.387 114.666 53.0903 119.568 53.2756C120.949 47.4029 122.773 40.0092 124.9 34.4231C129.403 34.0177 133.949 34.4709 138.451 34.1902C138.671 34.9075 138.565 35.5228 138.402 36.2393C137.642 39.5885 136.562 42.9234 135.628 46.2309L130.383 64.9193L125.612 82.2178C124.715 85.4566 123.919 88.8068 122.795 91.9735C118.533 91.9293 113.974 91.544 109.746 91.9544C110.634 87.6587 112.01 83.4677 113.194 79.2465C114.309 75.2692 115.239 70.9768 116.85 67.1674C112.401 67.6071 104.354 67.6839 99.8863 67.3092C98.7204 72.3148 96.8136 77.2989 95.2155 82.1917C94.1808 85.3593 93.33 88.8358 91.9999 91.8739C87.5785 91.9656 83.0584 91.6799 78.6555 92.0223C79.4973 88.3373 80.8691 84.7589 82.0675 81.1781C83.6444 76.4662 85.1575 71.7053 86.8703 67.0424C84.4803 67.4332 81.91 67.2517 79.4911 67.2452L67.9122 67.224L49.8413 67.2206C45.9398 67.2169 41.9119 67.3795 38.0329 66.9336C36.9476 71.2505 35.3046 75.4489 33.8569 79.6563L27.3938 98.6464Q24.1083 108.577 20.6745 118.457C19.6993 121.279 18.8697 124.265 17.692 127L0 127L0 126.061L0 0ZM0 0L0 126.061C1.26809 124.497 5.42464 110.146 6.4308 107.127L31.2365 33.48L38.7454 10.9642C39.9542 7.38506 40.9703 3.36911 42.659 0L0 0Z"/>
	<path fill="#86BAD6" d="M43.2297 0L60.3695 0L60.1641 0.391707C59.8354 0.532193 59.4877 0.641121 59.1307 0.67457C57.1299 0.862012 44.3045 0.88546 43.2297 0Z"/>
</svg>
